<svg xmlns="http://www.w3.org/2000/svg" xmlns:xlink="http://www.w3.org/1999/xlink" viewBox="0 0 562.75 416.93"><defs><style>.a{fill:url(#a);}.b{fill:#eff6ee;}.c{fill:url(#b);}</style><linearGradient id="a" y1="166.7" x2="327.43" y2="166.7" gradientUnits="userSpaceOnUse"><stop offset="0" stop-color="#5782ff"/><stop offset="0.13" stop-color="#49a1eb"/><stop offset="0.29" stop-color="#3ac3d6"/><stop offset="0.46" stop-color="#2eddc6"/><stop offset="0.63" stop-color="#26f0ba"/><stop offset="0.81" stop-color="#21fbb3"/><stop offset="1" stop-color="#1fffb1"/></linearGradient><linearGradient id="b" x1="136.21" y1="83.16" x2="463.64" y2="83.16" gradientTransform="translate(698.96 333.39) rotate(180)" xlink:href="#a"/></defs><polygon class="a" points="327.43 333.39 0 333.39 80.28 199.46 98.82 236.61 61.79 298.39 270.61 298.39 138.15 35.51 159.44 0 327.43 333.39"/><polygon class="b" points="235.32 83.54 562.75 83.54 482.47 217.47 463.93 180.32 500.96 118.54 292.14 118.54 424.6 381.42 403.31 416.93 235.32 83.54"/><polygon class="c" points="235.32 83.54 562.75 83.54 482.47 217.47 463.93 180.32 500.96 118.54 292.14 118.54 424.6 381.42 403.31 416.93 235.32 83.54"/></svg>